<mxfile host="app.diagrams.net" agent="Mozilla/5.0 (Macintosh; Intel Mac OS X 10_15_7) AppleWebKit/537.36 (KHTML, like Gecko) Chrome/131.0.0.0 Safari/537.36 Edg/131.0.0.0" version="24.7.12">
  <diagram name="Page-1" id="A6cYkvj42nxrK-PJml3J">
    <mxGraphModel dx="1426" dy="699" grid="1" gridSize="10" guides="1" tooltips="1" connect="1" arrows="1" fold="1" page="1" pageScale="1" pageWidth="850" pageHeight="1100" math="0" shadow="0">
      <root>
        <mxCell id="0" />
        <mxCell id="1" parent="0" />
        <mxCell id="F-3fn80Pz9pyox37bcG_-1" value="Instgram" style="dashed=0;outlineConnect=0;html=1;align=center;labelPosition=center;verticalLabelPosition=bottom;verticalAlign=top;shape=mxgraph.webicons.instagram;gradientColor=#DFDEDE" vertex="1" parent="1">
          <mxGeometry x="50" y="125" width="60" height="70" as="geometry" />
        </mxCell>
        <mxCell id="F-3fn80Pz9pyox37bcG_-8" style="edgeStyle=orthogonalEdgeStyle;rounded=0;orthogonalLoop=1;jettySize=auto;html=1;exitX=1;exitY=0.75;exitDx=0;exitDy=0;" edge="1" parent="1" source="F-3fn80Pz9pyox37bcG_-2">
          <mxGeometry relative="1" as="geometry">
            <mxPoint x="360" y="175" as="targetPoint" />
          </mxGeometry>
        </mxCell>
        <mxCell id="F-3fn80Pz9pyox37bcG_-11" style="edgeStyle=orthogonalEdgeStyle;rounded=0;orthogonalLoop=1;jettySize=auto;html=1;" edge="1" parent="1" source="F-3fn80Pz9pyox37bcG_-2" target="F-3fn80Pz9pyox37bcG_-1">
          <mxGeometry relative="1" as="geometry" />
        </mxCell>
        <mxCell id="F-3fn80Pz9pyox37bcG_-2" value="Scrapper API" style="rounded=0;whiteSpace=wrap;html=1;" vertex="1" parent="1">
          <mxGeometry x="174" y="130" width="120" height="60" as="geometry" />
        </mxCell>
        <mxCell id="F-3fn80Pz9pyox37bcG_-6" style="edgeStyle=orthogonalEdgeStyle;rounded=0;orthogonalLoop=1;jettySize=auto;html=1;exitX=0;exitY=0.5;exitDx=0;exitDy=0;entryX=1;entryY=0.5;entryDx=0;entryDy=0;" edge="1" parent="1" source="F-3fn80Pz9pyox37bcG_-3" target="F-3fn80Pz9pyox37bcG_-2">
          <mxGeometry relative="1" as="geometry" />
        </mxCell>
        <mxCell id="F-3fn80Pz9pyox37bcG_-15" value="GetProfile" style="edgeLabel;html=1;align=center;verticalAlign=middle;resizable=0;points=[];" vertex="1" connectable="0" parent="F-3fn80Pz9pyox37bcG_-6">
          <mxGeometry x="0.0909" y="1" relative="1" as="geometry">
            <mxPoint as="offset" />
          </mxGeometry>
        </mxCell>
        <mxCell id="F-3fn80Pz9pyox37bcG_-3" value="Batch Job" style="rounded=0;whiteSpace=wrap;html=1;" vertex="1" parent="1">
          <mxGeometry x="388" y="130" width="120" height="60" as="geometry" />
        </mxCell>
        <mxCell id="F-3fn80Pz9pyox37bcG_-4" value="users Ids" style="strokeWidth=2;html=1;shape=mxgraph.flowchart.database;whiteSpace=wrap;" vertex="1" parent="1">
          <mxGeometry x="418" y="30" width="60" height="60" as="geometry" />
        </mxCell>
        <mxCell id="F-3fn80Pz9pyox37bcG_-20" style="edgeStyle=orthogonalEdgeStyle;rounded=0;orthogonalLoop=1;jettySize=auto;html=1;exitX=0.5;exitY=1;exitDx=0;exitDy=0;exitPerimeter=0;entryX=0.5;entryY=1;entryDx=0;entryDy=0;" edge="1" parent="1" source="F-3fn80Pz9pyox37bcG_-5" target="F-3fn80Pz9pyox37bcG_-17">
          <mxGeometry relative="1" as="geometry">
            <mxPoint x="700" y="220" as="targetPoint" />
            <mxPoint x="425" y="340" as="sourcePoint" />
            <Array as="points">
              <mxPoint x="448" y="360" />
              <mxPoint x="690" y="360" />
            </Array>
          </mxGeometry>
        </mxCell>
        <mxCell id="F-3fn80Pz9pyox37bcG_-21" value="Returns User Insights" style="edgeLabel;html=1;align=center;verticalAlign=middle;resizable=0;points=[];" vertex="1" connectable="0" parent="F-3fn80Pz9pyox37bcG_-20">
          <mxGeometry x="-0.1468" y="-3" relative="1" as="geometry">
            <mxPoint as="offset" />
          </mxGeometry>
        </mxCell>
        <mxCell id="F-3fn80Pz9pyox37bcG_-5" value="CreatorsDb" style="strokeWidth=2;html=1;shape=mxgraph.flowchart.database;whiteSpace=wrap;" vertex="1" parent="1">
          <mxGeometry x="418" y="260" width="60" height="60" as="geometry" />
        </mxCell>
        <mxCell id="F-3fn80Pz9pyox37bcG_-13" style="edgeStyle=orthogonalEdgeStyle;rounded=0;orthogonalLoop=1;jettySize=auto;html=1;entryX=-0.033;entryY=0.9;entryDx=0;entryDy=0;entryPerimeter=0;" edge="1" parent="1" source="F-3fn80Pz9pyox37bcG_-1" target="F-3fn80Pz9pyox37bcG_-2">
          <mxGeometry relative="1" as="geometry">
            <Array as="points">
              <mxPoint x="130" y="184" />
              <mxPoint x="130" y="184" />
            </Array>
          </mxGeometry>
        </mxCell>
        <mxCell id="F-3fn80Pz9pyox37bcG_-14" style="edgeStyle=orthogonalEdgeStyle;rounded=0;orthogonalLoop=1;jettySize=auto;html=1;entryX=0.5;entryY=0;entryDx=0;entryDy=0;entryPerimeter=0;" edge="1" parent="1" source="F-3fn80Pz9pyox37bcG_-3" target="F-3fn80Pz9pyox37bcG_-5">
          <mxGeometry relative="1" as="geometry" />
        </mxCell>
        <mxCell id="F-3fn80Pz9pyox37bcG_-16" value="Save Profile Data" style="edgeLabel;html=1;align=center;verticalAlign=middle;resizable=0;points=[];" vertex="1" connectable="0" parent="F-3fn80Pz9pyox37bcG_-14">
          <mxGeometry x="0.0571" y="3" relative="1" as="geometry">
            <mxPoint as="offset" />
          </mxGeometry>
        </mxCell>
        <mxCell id="F-3fn80Pz9pyox37bcG_-23" style="edgeStyle=orthogonalEdgeStyle;rounded=0;orthogonalLoop=1;jettySize=auto;html=1;" edge="1" parent="1" source="F-3fn80Pz9pyox37bcG_-17" target="F-3fn80Pz9pyox37bcG_-22">
          <mxGeometry relative="1" as="geometry" />
        </mxCell>
        <mxCell id="F-3fn80Pz9pyox37bcG_-17" value="InsightAPI" style="rounded=0;whiteSpace=wrap;html=1;" vertex="1" parent="1">
          <mxGeometry x="630" y="130" width="120" height="60" as="geometry" />
        </mxCell>
        <mxCell id="F-3fn80Pz9pyox37bcG_-18" style="edgeStyle=orthogonalEdgeStyle;rounded=0;orthogonalLoop=1;jettySize=auto;html=1;entryX=1;entryY=0.5;entryDx=0;entryDy=0;entryPerimeter=0;" edge="1" parent="1" source="F-3fn80Pz9pyox37bcG_-17" target="F-3fn80Pz9pyox37bcG_-5">
          <mxGeometry relative="1" as="geometry" />
        </mxCell>
        <mxCell id="F-3fn80Pz9pyox37bcG_-19" value="With OpenAI" style="edgeLabel;html=1;align=center;verticalAlign=middle;resizable=0;points=[];" vertex="1" connectable="0" parent="F-3fn80Pz9pyox37bcG_-18">
          <mxGeometry x="0.1902" y="4" relative="1" as="geometry">
            <mxPoint as="offset" />
          </mxGeometry>
        </mxCell>
        <mxCell id="F-3fn80Pz9pyox37bcG_-27" style="edgeStyle=orthogonalEdgeStyle;rounded=0;orthogonalLoop=1;jettySize=auto;html=1;" edge="1" parent="1" source="F-3fn80Pz9pyox37bcG_-22" target="F-3fn80Pz9pyox37bcG_-25">
          <mxGeometry relative="1" as="geometry" />
        </mxCell>
        <mxCell id="F-3fn80Pz9pyox37bcG_-22" value="Shows List of users with Insights as per profile Data" style="rounded=0;whiteSpace=wrap;html=1;" vertex="1" parent="1">
          <mxGeometry x="810" y="130" width="120" height="60" as="geometry" />
        </mxCell>
        <mxCell id="F-3fn80Pz9pyox37bcG_-24" value="&lt;h1 style=&quot;margin-top: 0px;&quot;&gt;Further&lt;/h1&gt;&lt;p&gt;Start with Profile Data,later enrich with Post data, comments, Hashtags etc and add further insights&lt;/p&gt;" style="text;html=1;whiteSpace=wrap;overflow=hidden;rounded=0;fillColor=#fff2cc;strokeColor=#d6b656;" vertex="1" parent="1">
          <mxGeometry x="780" y="255" width="180" height="120" as="geometry" />
        </mxCell>
        <mxCell id="F-3fn80Pz9pyox37bcG_-25" value="&lt;font style=&quot;font-size: 18px;&quot;&gt;Define your Interface that you want to show to Clients as MVP&lt;/font&gt;" style="text;html=1;align=center;verticalAlign=middle;whiteSpace=wrap;rounded=0;fillColor=#dae8fc;strokeColor=#6c8ebf;" vertex="1" parent="1">
          <mxGeometry x="990" y="65" width="170" height="190" as="geometry" />
        </mxCell>
        <mxCell id="F-3fn80Pz9pyox37bcG_-28" value="Paid Service" style="text;html=1;align=center;verticalAlign=middle;whiteSpace=wrap;rounded=0;" vertex="1" parent="1">
          <mxGeometry x="205" y="200" width="60" height="30" as="geometry" />
        </mxCell>
        <mxCell id="F-3fn80Pz9pyox37bcG_-29" style="edgeStyle=orthogonalEdgeStyle;rounded=0;orthogonalLoop=1;jettySize=auto;html=1;entryX=0.5;entryY=1;entryDx=0;entryDy=0;entryPerimeter=0;" edge="1" parent="1" source="F-3fn80Pz9pyox37bcG_-3" target="F-3fn80Pz9pyox37bcG_-4">
          <mxGeometry relative="1" as="geometry" />
        </mxCell>
      </root>
    </mxGraphModel>
  </diagram>
</mxfile>
